<svg width="146" height="60" viewBox="0 0 146 60" xmlns="http://www.w3.org/2000/svg" xmlns:xlink="http://www.w3.org/1999/xlink"><defs><rect id="a" width="173" height="80" rx="2"/><path id="c" d="M.363.067h103.043v85.32H.363z"/><path id="e" d="M.102.103h56.337v65.642H.102z"/></defs><g fill="none" fill-rule="evenodd"><mask id="b" fill="#fff"><use xlink:href="#a"/></mask><g mask="url(#b)"><path d="M97.232 27.296c-.096-.22-.151-.47-.295-.652-.21-.266-.502-.229-.585.091-.05.193.057.541.209.64.146.094.44-.042.67-.079m13.103-8.284c-.132.393-.162.874-.41 1.166-2.39 2.805-4.296 6.07-7.508 8.104-3.083 1.951-5.34 4.638-6.981 7.874-2.078.192-2.792-.115-2.938-1.538-.12-1.18.028-2.388.057-3.581 1.55-2.37 2.83-4.917 4.868-6.97 1.293-1.302 2.7-2.264 4.494-2.711.14-1.32.063-2.725.483-3.96.381-1.124 1.275-2.082 1.99-3.079.517-.72 1.421-.812 2.173-.272.216.156.352.418.559.59 1.69 1.407 2.162 1.453 3.563-.357.656-.851 1.348-1.382 2.313-1.468 1.824-.164 3.886-.822 4.756 1.734.034.098.215.182.34.204 2.017.355.99 1.817 1.04 2.882-.67 1.26-1.927 1.59-3.135 1.997l-5.717-.557c-.218-.267-.416-.558-.674-.78-.046-.038-.342.219-.523.34.071.095.13.256.214.272.34.061.69.077 1.036.11M73.238 30.473c.13-1.237.331-2.472.372-3.712.045-1.422.742-2.573 1.943-2.913 2.103-.593 3.36-2.244 4.994-3.415.783-.56 1.501-1.214 2.285-1.774.702-.503 1.51-.779 2.295-.237.803.557.577 1.47.57 2.276-.003.271-.035.575-.158.809-1.602 3.024-2.264 6.48-4.31 9.31-.631.873-.96 1.968-1.42 2.964-.596 1.295-1.283 2.472-2.924 2.59-.255.018-.521.173-.74.325-.638.441-1.1 1.379-2.09.794-1.107-.655-1.262-1.702-1.108-2.883.178-1.369.296-2.746.44-4.118l-.15-.016zM112.738 52.143c1.38-.034 2.357-.608 2.66-2.047.699-3.326 2.803-4.748 6.11-4.85 1.19-.036 2.37-.55 3.607-.309.085.54.169 1.081.258 1.621.375 2.281.31 2.438-1.62 3.601-.438.265-.898.49-1.297.707.198 1.246.873 1.882 1.727 2.378-1.149 1.85-2.829 2.284-4.876 1.983-1.86-.273-3.746-.365-5.348-1.537-.56-.409-1.017-.87-1.221-1.547M98.947 7.115c.16-.01.316-.035.47-.075.648.942.8.952 1.286.087l-.029.014c.808.542 1.472.239 2.086-.36.308.83.835 1.375 1.744 1.577 1.055.235.993 1.177 1.09 1.988.077.632-.177 1.199-.797 1.21-4.375.08-7.444 2.341-9.98 5.705-.673.89-1.747 1.211-2.887.315-.496-.39-1.271-.421-1.917-.615-.692-.58-1.223-1.24-.337-2.03 1.428-1.272 2.846-2.54 4.602-3.41 1.97-.976 3.807-2.195 4.669-4.406M80.898.061c.4.563.85 1.094 1.186 1.693.378.675.925 1.04 1.654 1.063 3.483.111 6.623 1.814 10.054 2.155.269.027.585.231.79.142 2.026-.879.996.735 1.137 1.387-1.375 1.588-3.125 2.108-5.162 1.865-1.488-.178-2.985-.29-4.473-.48-.533-.068-1.183-.121-1.55-.445-2.11-1.857-4.786-2.565-7.235-3.729-.385-.182-.723-.412-.71-.886.02-.678.556-.9 1.078-1.015.526-.116 1.08-.108 1.624-.136 1.023-.053 1.302-.844 1.607-1.614" fill="#71057D"/><path d="M124.183 53.244c-.854-.496-1.53-1.131-1.727-2.378.399-.217.859-.443 1.296-.707 1.93-1.163 1.996-1.32 1.621-3.6-.09-.54-.173-1.081-.258-1.622l-.026.019c1.619.157 3.237.314 4.855.468 1.503.142 2.965.399 4.15 1.456-.814.743-1.622 1.489-2.44 2.224-.307.276-.851.48-.923.798-.794 3.52-3.637 3.061-6.142 3.27-.136.011-.271.048-.406.072M89.513 54.577c-.151-.746.108-1.312.71-1.771 1.198-.918 2.178-2.039 3.097-3.243.573-.752.396-2.758 1.902-2.036 2.875 1.377 3.629 2.726 3.064 4.582a11.417 11.417 0 0 1-2.883 4.829c-1.87-1.02-3.71-2.12-5.89-2.36" fill="#71057D"/><path d="M89.513 54.577c2.18.24 4.02 1.342 5.89 2.36-.582 1.636-2.177 1.96-3.48 2.585-.605.29-1.392-.07-1.773-.715-.77-1.308-1.52-2.654-.637-4.23M134.093 46.88c-1.184-1.057-2.646-1.314-4.149-1.456-1.618-.153-3.236-.312-4.855-.468.456-.985 1.304-1.428 2.3-1.35 2.156.17 4.306.425 6.45.715 1.029.139 1.6.939 2.07 1.794-.468.583-1.117.736-1.816.766M129.616.7c-.411.114-.578-.095-.619-.47a.736.736 0 0 1 .619.47M136.615 46.12l.97-.586c-.206.393-.52.604-.97.587M130.48 24.417c-.389.123-1.045.154-1.121.382-.663 1.976-2.414 2.09-3.982 2.33-2.621.4-3.33-.122-4.223-2.652-.455-1.293.422-2.94 1.73-3.095.948-.112 1.915-.055 2.872-.068.665-.01.904-.507 1.15-.997 1.87-.098 2.283 1.881 3.598 2.604.203.11-.007.978-.025 1.496M111.782 28.575c.665.1 1.337.164 1.992.307.756.163 1.299.648.802 1.405-.865 1.315-.756 2.856-1.205 4.252-1.677.535-2.468 2.047-3.557 3.24-.719.785-1.6.904-2.161.416-.746-.647-.932-1.683-.263-2.553.579-.751 1.355-1.349 1.329-2.422l.43-1.189c.8-.317 1.343-.826 1.628-1.699.205-.628.661-1.174 1.005-1.757M97.231 27.297c-.23.036-.524.172-.67.077-.152-.098-.26-.446-.21-.639.084-.32.376-.357.586-.091.144.181.2.433.294.653M110.333 19.012c-.345-.033-.695-.049-1.034-.11-.086-.015-.144-.178-.214-.272.18-.121.477-.379.521-.34.258.221.456.512.674.78l.053-.058" fill="#71057D"/><g transform="rotate(96 97.877 45.023)"><mask id="d" fill="#fff"><use xlink:href="#c"/></mask><path d="M53.923 21.85c.087-1.15-.01-1.94-.75-2.474-.197-.142-.5-.247-.726-.208-.216.037-.555.276-.564.44-.067 1.228.481 2.314.933 3.413.038.09.613.109.656.024.233-.47.377-.984.451-1.196m-37.54 4.223c.118-.678.243-1.355.353-2.034.336-2.061 1.125-3.068 3.014-3.296 1.66-.201 3.142-.21 4.318-1.866.888-1.25 2.555-.874 4.04.1 1.481.972 2.393 2.715 4.285 3.109.049.55-.007 1.134.166 1.642.418 1.224.064 1.823-1.246 1.91-1.038.069-1.388.758-1.377 1.699.016 1.38.015 2.763.066 4.143.023.59.434 1.295.972 1.015 1.778-.925 2.265.994 3.854 1.644-1.025-2.017-.702-3.814-.8-5.585-.07-1.259.29-1.97 1.638-2.427 1.592-.538 2.308-1.868 1.906-3.636-.152-.67-.204-1.363-.302-2.045.275-.811.685-1.467 1.692-1.367.4.039.841.034 1.184.207 2.038 1.023 3.602.292 4.988-1.238.45-.498.904-.433 1.316.073.375 3.909-1.745 6.77-4.04 9.564-.375.456-1.235.716-.741 1.67.987.163 1.846.067 2.482-.908 1.784-2.737 4.226-5.148 4.184-8.764-.004-.333.44-.67.674-1.005l1.069.079c.367-.08.558-.267.401-.664-.327-1.05-.648-2.103-.984-3.15-.307-.958-.337-2.023.097-2.824.92-1.7 1.518-3.504 2.185-5.292.083-.223.226-.563.392-.595 2.244-.432 3.21-2.404 4.703-3.753 1.251-1.13 2.839-1.692 4.55-1.73C63.63.702 65.838.727 68.045.693 69.7.667 71.421.88 72.991.493c3.956-.972 7.658-.14 11.36 1.07 2.208.722 4.306 1.815 6.766 1.578 1.66-.16 2.347 1.199 3.117 2.339l.685.903c.028.234.05.467.069.703-.802.557-1.537 1.209-1.567 2.245a114.563 114.563 0 0 0-.038 6.49c.026 1 .555 1.796 1.582 2.147l-.02-.024c-.11 1.256.523 2.375.684 3.555.447 3.278 2.081 5.223 5.461 5.57 1.464.15 2.136 1.062 2.316 2.431-.992 3.244-3.018 5.454-6.361 6.396-.656.186-1.246.61-1.904.784-1.183.312-1.714.965-2.07 2.196-.948 3.274-1.882 6.586-3.757 9.503-3.39-1.293-6.298-3.257-8.56-6.12-2.36-2.982-5.806-4.535-8.846-6.62-.315-.217-.797-.195-1.201-.285l.062.047-.042-5.745c1.301.999 2.718 1.73 4.407 1.727 1.812-.005 3.065 1.737 4.932 1.53.615.282 1.206.679 1.853.817.897.192 1.46.68 1.859 1.442-1.545 2.045-1.623 3.29-.342 5.422.268.445 1.058.409 1.323-.107.42-.816 1.007-1.56.588-2.637-.282-.727-.238-1.578-.34-2.374 1.063-.14 1.738.57 2.547 1.068.934.574 1.945.282 2.51-.529.428-.61.217-1.473-.64-2.106-1.3-.958-2.885-1.587-3.6-3.195.642-.88 1.272-1.766 1.93-2.63.332-.437.793-.79 1.063-1.255 1.016-1.755 1.623-2.62-.5-4.169-.111-.081-.218-.171-.339-.235-1.028-.545-1.055-1.271-.839-2.39.468-2.416.345-2.463-2.43-2.906-.703-.113-1.253-.38-1.847-.768-1.728-1.13-3.304-2.36-3.994-4.667-1.14 1.26-2.094 2.189-3.614 2.135-.57-.021-.978.439-1.278.925-.517.036-1.401-.081-1.49.132-.581 1.383-2.507 2.001-2.212 3.85-1.477 2.472-2.419 5.068-1.86 8.009-1.055.164-2.617-.705-2.76 1.337-.008.127-.072.317-.166.36-2.451 1.133-1.582 3.115-1.228 4.912.187.95.787 1.583 1.702 2.147 1.947 1.203 1.95 1.678.727 3.506-.15.223-.395.386-.528.617-.459.805-.272 1.694.497 2.132 1.067.608 2.113 1.397 3.271 1.659 1.272.288 2.66.066 3.988.066.632 1.737 1.737 3.036 3.167 4.186 2.254 1.812 4.92 2.819 7.443 4.111-1.201 1.452-2.377 2.878-3.838 4.148-1.219 1.06-2.517.087-3.517.902-2.025-.963-4.311-.36-6.381-1.05.125-.662.076-1.437.411-1.971.772-1.228.341-2.261-.615-2.838-3.61-2.17-6.18-4.988-6.717-9.328-.076-.616-.666-.81-1.286-.668-.796.181-1.74.219-1.863 1.293-.106.925-.593 1.506-1.387 1.899-.375.838-.555 1.62.577 2.036l-.018-.027c.016.43.031.86.048 1.288.056.15.098.302.124.46l-.274 3.274c-.633.209-2.345-.647-1.26 1.276.11.195-.06.531-.058.8.019 3.45-1.346 6.75-1.092 10.225.053.727-.253 1.31-.885 1.756-.56.396-1.042.9-1.56 1.356-.822 1.044-2.118 1.639-2.514 3.12-.356 1.33-1.505 1.397-2.673.94-.503-.6-.958-1.263-1.934-1.533-.807 1.923-2.007 3.58-3.91 4.62-.882-.662-.282-2.007-1.111-2.775-.95 1.095-2.292 1.844-.692 3.376.681.654.361 1.83-.329 2.596-.534.594-1.193 1.077-1.796 1.61-1.49.853-3.104.963-4.765.778-3.66.555-3.969.81-4.728 4.032-.125.53-.12 1.093-.273 1.612-.053.18-.39.307-.62.396-.085.033-.28-.079-.355-.179-.243-.324-.545-.643-.662-1.014-.499-1.597-1.341-2.995-2.273-4.372-.526-.78-1.013-1.676-1.185-2.582-.188-.988-.51-1.725-1.235-2.468-1.861-1.912-2.094-4.063-.546-6.343.458-.674.824-1.426 1.126-2.184.156-.394-.105-.803-.545-.923-1.303-.356-2.805.078-3.935-.979l1.456-4.049c1.035-.465 1.794-1.12 1.677-2.386 1.932-2.104 2.003-4.81 2.427-7.402l.207-.224c.969.405 1.577 1.085 1.612 2.168.08 2.41.987 4.8.028 7.244-.226.574-.062 1.436.571 1.84.434.277 1.038.289 1.566.42.707.754 1.531 1.124 2.5.556.786-.458 1.966-.793 1.862-1.88-.146-1.508-1.562-1.096-2.552-1.266l.383-5.014c2.887.725 4.548 1.629 6.124 3.328 1.225 1.321 2.722 1.16 3.882-.559.452-.669.919-.977 1.667-.893 1.537.174 2.233-.824 2.834-1.968.615-1.17.332-2.763 1.732-3.58.163-.094.21-.509.192-.765-.14-1.945-.404-3.817-2.1-5.182-1.708-1.374-3.31-2.876-4.972-4.306-.53-.456-1.12-.886-1.869-.503-.921.472-1.494.175-2.077-.628-.65-.892-1.471-1.666-2.728-1.616-.121.256-.316.486-.334.729-.097 1.371.063 2.774-1.986 2.995-.798.085-1.2 1.096-1.33 1.946-.123.817-.095 1.667-.815 2.263-.414-.94-1.086-1.6-2.095-1.864-1.15-.304-1.512-1.125-1.456-2.193.123-2.337.17-4.66.666-6.99.87-4.081.323-5.05-3.276-7.42-1.388-.914-1.834-.703-2.249.828-.99 3.658-.777 7.389-.784 11.107-.002 1.793.22 3.604-.362 5.35-.472 1.41-.497 2.648.72 3.783.785.731.538 1.794.403 2.755-1.042-.72-2.18-1.21-3.46-1.19-.34.006-.83.28-.98.569-.324.634.246 1.046.696 1.282 1.161.608 2.416.408 3.65.229-.02 1.969.453 3.997-.699 5.831-1.296.285-1.83 1.111-1.719 2.396-1.633.187-3.218.44-3.448 2.525a169.99 169.99 0 0 1-.8-.579c.466-3.08-.858-5.996-.832-9.047.012-1.22-.54-2.464-.43-3.66.15-1.628 2.238-1.462 2.983-2.652.215-.344.522-.688.1-1.034-.18-.148-.578-.249-.753-.151-2.134 1.192-4.707 2.036-4.352 5.287.04.371-.258.806-.794.685-.543-.124-1.133-.31-1.301-.89-.103-.35-.014-.81.127-1.166.373-.93.417-1.889.348-2.857-.014-.187-.295-.516-.419-.5-.217.027-.423.252-.603.426-.093.09-.106.254-.177.373-.715 1.208-.723 1.221-2.242.54-.426-.19-.798-.182-1.115.118-.346.329-.281.753-.082 1.134.512.982.828 2.207 1.616 2.87 1.263 1.066 1.36 2.318 1.36 3.723-.001.83.032 1.66.05 2.49-1.993-.113-2.916-1.912-4.347-2.88-1.053-.711-1.865-1.912-2.866-2.829-.916-.836-.858-1.727.105-2.77.468-.508.883-.809.717-1.676-.404-2.12-.599-4.28-.88-6.423 1.221-.76 2.678-1.366 2.201-3.264l-.026.022c1.255.071 2.19-.452 2.412-1.693.38-2.118.595-4.266.907-6.397.157-1.07-.23-1.418-1.328-1.356-1.345.076-.789-1.834-1.654-1.955-1.75-.243-1.8-1.83-2.64-2.778.223-.147.457-.433.667-.416 4.161.335 8.12 1.16 10.881 4.706-.202 2.004.07 3.977 1.74 5.228 1.312.981 1.566 2.174 1.605 3.57.026.961-.032 1.927-.05 2.89-.016.962-.08 1.928-.03 2.887.033.64-.01 1.524.981 1.454.716-.05.585-.766.604-1.277.021-.55-.07-1.113.017-1.65.352-2.176-.316-4.431.449-6.556.774-2.154.396-4.356.459-6.54.034-1.183-.749-1.681-1.77-1.938" fill="#FB009F" mask="url(#d)"/></g><g transform="rotate(96 42.736 13.22)"><mask id="f" fill="#fff"><use xlink:href="#e"/></mask><path d="M25.22 48.658l-.152.261.228.03-.076-.29zM14.077 58.984c-.075-.468-.024-1.06-.756-.986-.155.015-.377.355-.393.56-.04.507.047 1.026.744 1 .32-.011.45-.25.405-.574zm-2.988-7.326c-.63-1.949-1.538-3.941-2.872-5.724-.135-.18-.58-.376-.657-.309-.29.25-.668.595-.692.927-.175 2.332.993 4.222 2.205 6.065.179.272.709.49 1.041.45.623-.077.804-.666.975-1.409zm4.536-2.865c.068-2.544-1.358-3.785-2.985-4.847-.25-.164-.822-.048-1.126.135-.306.184-.72.692-.646.921.562 1.784 1.13 3.586 2.21 5.143.477.688 1.703.544 2.085-.191.243-.465.392-.98.462-1.16zm8.621-40.78c.489-.264.985-.768 1.464-.752 3.275.114 5.742-1.784 8.317-3.305 1.28-.756 2.651-1.341 3.866-2.318C39.38.44 41.484.462 43.423.196c3.067-.42 5.289.584 6.974 3.054.232.338.433.776.765.955 2.252 1.217 2.873 3.185 2.834 5.568-.022 1.3.69 2.426 1.53 3.33 1.124 1.214 1.055 2.638.619 3.88-.911 2.595-2.272 5.032-2.543 7.84-.057.597-.62.83-1.124 1.104-1.459.789-2.861 1.699-4.6 1.748-2.632 2.05-4.8 1.32-6.625-1.272-.79 2.08-.884 2.097-.688 3.072.886 4.386.41 8.827.61 13.24.024.537-.088 1.081-.162 1.897-1.55-.402-3.074-.334-4.14-1.67-.408-.51-.86-1.287-1.635-.736-.358.256-.532.947-.555 1.45-.05 1.1.037 2.209.095 3.312.053 1.018.378 2.064 1.318 2.445 2.007.818 1.87 2.545 2.096 4.165.28 1.983-.01 2.719-1.37 3.434-1.573.828-2.836.672-4.146-.6-.593-.575-1.332-1.166-1.584-1.895-.876-2.527-3.173-3.143-5.114-4.242-1.522 2.375-1.71 4.73-.633 7.2.275.63.438 1.314.593 1.987.315 1.37.02 2.121-1.089 2.844-.347.226-.716.442-1.105.58-1.012.359-1.963 1.483-3.065.851-1.204-.691-.404-1.993-.42-3.031-.007-.546.164-1.105.097-1.638-.054-.427-.552-.745-.92-.571-1.964.93-2.651 2.373-2.111 4.302.111.395.386.747.487 1.143.208.822-.203 1.364-.99 1.484-4.04.615-8.05.32-11.986-.684-2.039-.52-3.093-3.436-2.172-5.54 1.407-3.214 1.407-3.214-1.718-4.422-.395-.152-.794-.326-.838-.806-.057-.64.295-1.014.9-1.158.27-.065.56-.057.818-.147 1.067-.375 1.382-.94 1.019-1.779-.11-.253-.193-.542-.371-.739-2.238-2.469-1.882-5.331-1.257-8.22.376-1.75.825-3.484 1.24-5.222 2.275.234 4.304-.446 6.26-1.552.877-.497 1.593-1.05 1.922-2.01 1.156-3.372 2.071-6.766 1.14-10.376-.305-1.184-.48-2.4-.714-3.602.788-.754 1.8-.822 2.806-.903 1.296.806 1.902 1.67 1.31 3.398-.876 2.554.095 4.883 1.895 6.8 1.02 1.087 2.203 1.074 3.8.21 1.218-.659 1.603-1.628 1.176-3.167-.144-.518-.314-1.13-.686-1.468-1.416-1.285-1.827-3.041-2.436-4.714 1.146-.291 2.138.242 3.194.524.624.168 1.366.116 2.006-.04 1.172-.282 1.711-1.641 1.027-2.601-2.222-3.122-4.417-6.296-8.516-7.24-.014-2.252.72-4.322 1.582-6.358.66-1.56.945-1.738 2.445-1.597 2.412.227 3.028.886 3.12 3.418.025.686-.044 1.376-.067 2.065-.29.275-.555.583-.074.873.093.056.394-.229.599-.356z" fill="#FB009F" mask="url(#f)"/></g></g></g></svg>